<svg xmlns="http://www.w3.org/2000/svg" viewBox="0 0 512 512">
  <defs>
    <linearGradient id="grad1" x1="0%" y1="0%" x2="100%" y2="100%">
      <stop offset="0%" style="stop-color:#0f6d3e;stop-opacity:1" />
      <stop offset="100%" style="stop-color:#0b5530;stop-opacity:1" />
    </linearGradient>
  </defs>
  <path fill="url(#grad1)" d="M256 0L477.7 128V384L256 512L34.3 384V128L256 0Z"/>
  <path fill="#FFFFFF" d="M368 224H320V176C320 158.3 305.7 144 288 144H160C142.3 144 128 158.3 128 176V304C128 321.7 142.3 336 160 336H192V384L256 336H288C305.7 336 320 321.7 320 304V288H368C385.7 288 400 273.7 400 256V176C400 158.3 385.7 144 368 144H336V176H368V256H320V224ZM160 176H288V304H240L192 352V304H160V176ZM336 224L384 256L336 288V264H240V248H336V224Z"/>
</svg>